<mxfile host="app.diagrams.net" agent="Mozilla/5.0 (Windows NT 10.0; Win64; x64) AppleWebKit/537.36 (KHTML, like Gecko) Chrome/131.0.0.0 Safari/537.36" version="24.8.6">
  <diagram name="Page-1" id="qm7XWnGzNfIZUS9cLgl1">
    <mxGraphModel dx="2049" dy="1054" grid="1" gridSize="10" guides="1" tooltips="1" connect="1" arrows="1" fold="1" page="1" pageScale="1" pageWidth="827" pageHeight="1169" math="0" shadow="0">
      <root>
        <mxCell id="0" />
        <mxCell id="1" parent="0" />
        <mxCell id="qbjHn3xxU6l6A_D1i-yu-1" value="Genre" style="swimlane;fontStyle=1;align=center;verticalAlign=top;childLayout=stackLayout;horizontal=1;startSize=26.444444444444443;horizontalStack=0;resizeParent=1;resizeParentMax=0;resizeLast=0;collapsible=0;marginBottom=0;" vertex="1" parent="1">
          <mxGeometry x="20" y="20" width="222" height="117.44444444444444" as="geometry" />
        </mxCell>
        <mxCell id="qbjHn3xxU6l6A_D1i-yu-2" value="+Int genreId" style="text;strokeColor=none;fillColor=none;align=left;verticalAlign=top;spacingLeft=4;spacingRight=4;overflow=hidden;rotatable=0;points=[[0,0.5],[1,0.5]];portConstraint=eastwest;" vertex="1" parent="qbjHn3xxU6l6A_D1i-yu-1">
          <mxGeometry y="26.444444444444443" width="222" height="26" as="geometry" />
        </mxCell>
        <mxCell id="qbjHn3xxU6l6A_D1i-yu-3" value="+String genreName" style="text;strokeColor=none;fillColor=none;align=left;verticalAlign=top;spacingLeft=4;spacingRight=4;overflow=hidden;rotatable=0;points=[[0,0.5],[1,0.5]];portConstraint=eastwest;" vertex="1" parent="qbjHn3xxU6l6A_D1i-yu-1">
          <mxGeometry y="52.44444444444444" width="222" height="26" as="geometry" />
        </mxCell>
        <mxCell id="qbjHn3xxU6l6A_D1i-yu-4" value="+List&lt;Performer&gt; performers" style="text;strokeColor=none;fillColor=none;align=left;verticalAlign=top;spacingLeft=4;spacingRight=4;overflow=hidden;rotatable=0;points=[[0,0.5],[1,0.5]];portConstraint=eastwest;" vertex="1" parent="qbjHn3xxU6l6A_D1i-yu-1">
          <mxGeometry y="78.44444444444444" width="222" height="26" as="geometry" />
        </mxCell>
        <mxCell id="qbjHn3xxU6l6A_D1i-yu-5" style="line;strokeWidth=1;fillColor=none;align=left;verticalAlign=middle;spacingTop=-1;spacingLeft=3;spacingRight=3;rotatable=0;labelPosition=right;points=[];portConstraint=eastwest;strokeColor=inherit;" vertex="1" parent="qbjHn3xxU6l6A_D1i-yu-1">
          <mxGeometry y="104.44444444444444" width="222" height="13" as="geometry" />
        </mxCell>
        <mxCell id="qbjHn3xxU6l6A_D1i-yu-6" value="Performer" style="swimlane;fontStyle=1;align=center;verticalAlign=top;childLayout=stackLayout;horizontal=1;startSize=25.818181818181817;horizontalStack=0;resizeParent=1;resizeParentMax=0;resizeLast=0;collapsible=0;marginBottom=0;" vertex="1" parent="1">
          <mxGeometry x="39" y="232" width="184" height="142.8181818181818" as="geometry" />
        </mxCell>
        <mxCell id="qbjHn3xxU6l6A_D1i-yu-7" value="+Int performerId" style="text;strokeColor=none;fillColor=none;align=left;verticalAlign=top;spacingLeft=4;spacingRight=4;overflow=hidden;rotatable=0;points=[[0,0.5],[1,0.5]];portConstraint=eastwest;" vertex="1" parent="qbjHn3xxU6l6A_D1i-yu-6">
          <mxGeometry y="25.818181818181817" width="184" height="26" as="geometry" />
        </mxCell>
        <mxCell id="qbjHn3xxU6l6A_D1i-yu-8" value="+String performerName" style="text;strokeColor=none;fillColor=none;align=left;verticalAlign=top;spacingLeft=4;spacingRight=4;overflow=hidden;rotatable=0;points=[[0,0.5],[1,0.5]];portConstraint=eastwest;" vertex="1" parent="qbjHn3xxU6l6A_D1i-yu-6">
          <mxGeometry y="51.81818181818181" width="184" height="26" as="geometry" />
        </mxCell>
        <mxCell id="qbjHn3xxU6l6A_D1i-yu-9" value="+Genre genre" style="text;strokeColor=none;fillColor=none;align=left;verticalAlign=top;spacingLeft=4;spacingRight=4;overflow=hidden;rotatable=0;points=[[0,0.5],[1,0.5]];portConstraint=eastwest;" vertex="1" parent="qbjHn3xxU6l6A_D1i-yu-6">
          <mxGeometry y="77.81818181818181" width="184" height="26" as="geometry" />
        </mxCell>
        <mxCell id="qbjHn3xxU6l6A_D1i-yu-10" value="+List&lt;Event&gt; events" style="text;strokeColor=none;fillColor=none;align=left;verticalAlign=top;spacingLeft=4;spacingRight=4;overflow=hidden;rotatable=0;points=[[0,0.5],[1,0.5]];portConstraint=eastwest;" vertex="1" parent="qbjHn3xxU6l6A_D1i-yu-6">
          <mxGeometry y="103.81818181818181" width="184" height="26" as="geometry" />
        </mxCell>
        <mxCell id="qbjHn3xxU6l6A_D1i-yu-11" style="line;strokeWidth=1;fillColor=none;align=left;verticalAlign=middle;spacingTop=-1;spacingLeft=3;spacingRight=3;rotatable=0;labelPosition=right;points=[];portConstraint=eastwest;strokeColor=inherit;" vertex="1" parent="qbjHn3xxU6l6A_D1i-yu-6">
          <mxGeometry y="129.8181818181818" width="184" height="13" as="geometry" />
        </mxCell>
        <mxCell id="qbjHn3xxU6l6A_D1i-yu-12" value="Venue" style="swimlane;fontStyle=1;align=center;verticalAlign=top;childLayout=stackLayout;horizontal=1;startSize=25.066666666666666;horizontalStack=0;resizeParent=1;resizeParentMax=0;resizeLast=0;collapsible=0;marginBottom=0;" vertex="1" parent="1">
          <mxGeometry x="273" y="209" width="158" height="188.06666666666666" as="geometry" />
        </mxCell>
        <mxCell id="qbjHn3xxU6l6A_D1i-yu-13" value="+Int venueId" style="text;strokeColor=none;fillColor=none;align=left;verticalAlign=top;spacingLeft=4;spacingRight=4;overflow=hidden;rotatable=0;points=[[0,0.5],[1,0.5]];portConstraint=eastwest;" vertex="1" parent="qbjHn3xxU6l6A_D1i-yu-12">
          <mxGeometry y="25.066666666666666" width="158" height="25" as="geometry" />
        </mxCell>
        <mxCell id="qbjHn3xxU6l6A_D1i-yu-14" value="+String venueName" style="text;strokeColor=none;fillColor=none;align=left;verticalAlign=top;spacingLeft=4;spacingRight=4;overflow=hidden;rotatable=0;points=[[0,0.5],[1,0.5]];portConstraint=eastwest;" vertex="1" parent="qbjHn3xxU6l6A_D1i-yu-12">
          <mxGeometry y="50.06666666666666" width="158" height="25" as="geometry" />
        </mxCell>
        <mxCell id="qbjHn3xxU6l6A_D1i-yu-15" value="+String location" style="text;strokeColor=none;fillColor=none;align=left;verticalAlign=top;spacingLeft=4;spacingRight=4;overflow=hidden;rotatable=0;points=[[0,0.5],[1,0.5]];portConstraint=eastwest;" vertex="1" parent="qbjHn3xxU6l6A_D1i-yu-12">
          <mxGeometry y="75.06666666666666" width="158" height="25" as="geometry" />
        </mxCell>
        <mxCell id="qbjHn3xxU6l6A_D1i-yu-16" value="+String type" style="text;strokeColor=none;fillColor=none;align=left;verticalAlign=top;spacingLeft=4;spacingRight=4;overflow=hidden;rotatable=0;points=[[0,0.5],[1,0.5]];portConstraint=eastwest;" vertex="1" parent="qbjHn3xxU6l6A_D1i-yu-12">
          <mxGeometry y="100.06666666666666" width="158" height="25" as="geometry" />
        </mxCell>
        <mxCell id="qbjHn3xxU6l6A_D1i-yu-17" value="+Int capacity" style="text;strokeColor=none;fillColor=none;align=left;verticalAlign=top;spacingLeft=4;spacingRight=4;overflow=hidden;rotatable=0;points=[[0,0.5],[1,0.5]];portConstraint=eastwest;" vertex="1" parent="qbjHn3xxU6l6A_D1i-yu-12">
          <mxGeometry y="125.06666666666666" width="158" height="25" as="geometry" />
        </mxCell>
        <mxCell id="qbjHn3xxU6l6A_D1i-yu-18" value="+List&lt;Event&gt; events" style="text;strokeColor=none;fillColor=none;align=left;verticalAlign=top;spacingLeft=4;spacingRight=4;overflow=hidden;rotatable=0;points=[[0,0.5],[1,0.5]];portConstraint=eastwest;" vertex="1" parent="qbjHn3xxU6l6A_D1i-yu-12">
          <mxGeometry y="150.06666666666666" width="158" height="25" as="geometry" />
        </mxCell>
        <mxCell id="qbjHn3xxU6l6A_D1i-yu-19" style="line;strokeWidth=1;fillColor=none;align=left;verticalAlign=middle;spacingTop=-1;spacingLeft=3;spacingRight=3;rotatable=0;labelPosition=right;points=[];portConstraint=eastwest;strokeColor=inherit;" vertex="1" parent="qbjHn3xxU6l6A_D1i-yu-12">
          <mxGeometry y="175.06666666666666" width="158" height="13" as="geometry" />
        </mxCell>
        <mxCell id="qbjHn3xxU6l6A_D1i-yu-20" value="Event" style="swimlane;fontStyle=1;align=center;verticalAlign=top;childLayout=stackLayout;horizontal=1;startSize=25.066666666666666;horizontalStack=0;resizeParent=1;resizeParentMax=0;resizeLast=0;collapsible=0;marginBottom=0;" vertex="1" parent="1">
          <mxGeometry x="115" y="512" width="253" height="188.06666666666666" as="geometry" />
        </mxCell>
        <mxCell id="qbjHn3xxU6l6A_D1i-yu-21" value="+Int eventId" style="text;strokeColor=none;fillColor=none;align=left;verticalAlign=top;spacingLeft=4;spacingRight=4;overflow=hidden;rotatable=0;points=[[0,0.5],[1,0.5]];portConstraint=eastwest;" vertex="1" parent="qbjHn3xxU6l6A_D1i-yu-20">
          <mxGeometry y="25.066666666666666" width="253" height="25" as="geometry" />
        </mxCell>
        <mxCell id="qbjHn3xxU6l6A_D1i-yu-22" value="+String eventName" style="text;strokeColor=none;fillColor=none;align=left;verticalAlign=top;spacingLeft=4;spacingRight=4;overflow=hidden;rotatable=0;points=[[0,0.5],[1,0.5]];portConstraint=eastwest;" vertex="1" parent="qbjHn3xxU6l6A_D1i-yu-20">
          <mxGeometry y="50.06666666666666" width="253" height="25" as="geometry" />
        </mxCell>
        <mxCell id="qbjHn3xxU6l6A_D1i-yu-23" value="+Date eventDate" style="text;strokeColor=none;fillColor=none;align=left;verticalAlign=top;spacingLeft=4;spacingRight=4;overflow=hidden;rotatable=0;points=[[0,0.5],[1,0.5]];portConstraint=eastwest;" vertex="1" parent="qbjHn3xxU6l6A_D1i-yu-20">
          <mxGeometry y="75.06666666666666" width="253" height="25" as="geometry" />
        </mxCell>
        <mxCell id="qbjHn3xxU6l6A_D1i-yu-24" value="+Performer performer" style="text;strokeColor=none;fillColor=none;align=left;verticalAlign=top;spacingLeft=4;spacingRight=4;overflow=hidden;rotatable=0;points=[[0,0.5],[1,0.5]];portConstraint=eastwest;" vertex="1" parent="qbjHn3xxU6l6A_D1i-yu-20">
          <mxGeometry y="100.06666666666666" width="253" height="25" as="geometry" />
        </mxCell>
        <mxCell id="qbjHn3xxU6l6A_D1i-yu-25" value="+Venue venue" style="text;strokeColor=none;fillColor=none;align=left;verticalAlign=top;spacingLeft=4;spacingRight=4;overflow=hidden;rotatable=0;points=[[0,0.5],[1,0.5]];portConstraint=eastwest;" vertex="1" parent="qbjHn3xxU6l6A_D1i-yu-20">
          <mxGeometry y="125.06666666666666" width="253" height="25" as="geometry" />
        </mxCell>
        <mxCell id="qbjHn3xxU6l6A_D1i-yu-26" value="+List&lt;TicketCategory&gt; categories" style="text;strokeColor=none;fillColor=none;align=left;verticalAlign=top;spacingLeft=4;spacingRight=4;overflow=hidden;rotatable=0;points=[[0,0.5],[1,0.5]];portConstraint=eastwest;" vertex="1" parent="qbjHn3xxU6l6A_D1i-yu-20">
          <mxGeometry y="150.06666666666666" width="253" height="25" as="geometry" />
        </mxCell>
        <mxCell id="qbjHn3xxU6l6A_D1i-yu-27" style="line;strokeWidth=1;fillColor=none;align=left;verticalAlign=middle;spacingTop=-1;spacingLeft=3;spacingRight=3;rotatable=0;labelPosition=right;points=[];portConstraint=eastwest;strokeColor=inherit;" vertex="1" parent="qbjHn3xxU6l6A_D1i-yu-20">
          <mxGeometry y="175.06666666666666" width="253" height="13" as="geometry" />
        </mxCell>
        <mxCell id="qbjHn3xxU6l6A_D1i-yu-28" value="TicketCategory" style="swimlane;fontStyle=1;align=center;verticalAlign=top;childLayout=stackLayout;horizontal=1;startSize=25.384615384615383;horizontalStack=0;resizeParent=1;resizeParentMax=0;resizeLast=0;collapsible=0;marginBottom=0;" vertex="1" parent="1">
          <mxGeometry x="158" y="804" width="167" height="163.3846153846154" as="geometry" />
        </mxCell>
        <mxCell id="qbjHn3xxU6l6A_D1i-yu-29" value="+Int ticketCategoryId" style="text;strokeColor=none;fillColor=none;align=left;verticalAlign=top;spacingLeft=4;spacingRight=4;overflow=hidden;rotatable=0;points=[[0,0.5],[1,0.5]];portConstraint=eastwest;" vertex="1" parent="qbjHn3xxU6l6A_D1i-yu-28">
          <mxGeometry y="25.384615384615383" width="167" height="25" as="geometry" />
        </mxCell>
        <mxCell id="qbjHn3xxU6l6A_D1i-yu-30" value="+String description" style="text;strokeColor=none;fillColor=none;align=left;verticalAlign=top;spacingLeft=4;spacingRight=4;overflow=hidden;rotatable=0;points=[[0,0.5],[1,0.5]];portConstraint=eastwest;" vertex="1" parent="qbjHn3xxU6l6A_D1i-yu-28">
          <mxGeometry y="50.38461538461539" width="167" height="25" as="geometry" />
        </mxCell>
        <mxCell id="qbjHn3xxU6l6A_D1i-yu-31" value="+BigDecimal price" style="text;strokeColor=none;fillColor=none;align=left;verticalAlign=top;spacingLeft=4;spacingRight=4;overflow=hidden;rotatable=0;points=[[0,0.5],[1,0.5]];portConstraint=eastwest;" vertex="1" parent="qbjHn3xxU6l6A_D1i-yu-28">
          <mxGeometry y="75.38461538461539" width="167" height="25" as="geometry" />
        </mxCell>
        <mxCell id="qbjHn3xxU6l6A_D1i-yu-32" value="+Event event" style="text;strokeColor=none;fillColor=none;align=left;verticalAlign=top;spacingLeft=4;spacingRight=4;overflow=hidden;rotatable=0;points=[[0,0.5],[1,0.5]];portConstraint=eastwest;" vertex="1" parent="qbjHn3xxU6l6A_D1i-yu-28">
          <mxGeometry y="100.38461538461539" width="167" height="25" as="geometry" />
        </mxCell>
        <mxCell id="qbjHn3xxU6l6A_D1i-yu-33" value="+List&lt;Ticket&gt; tickets" style="text;strokeColor=none;fillColor=none;align=left;verticalAlign=top;spacingLeft=4;spacingRight=4;overflow=hidden;rotatable=0;points=[[0,0.5],[1,0.5]];portConstraint=eastwest;" vertex="1" parent="qbjHn3xxU6l6A_D1i-yu-28">
          <mxGeometry y="125.38461538461539" width="167" height="25" as="geometry" />
        </mxCell>
        <mxCell id="qbjHn3xxU6l6A_D1i-yu-34" style="line;strokeWidth=1;fillColor=none;align=left;verticalAlign=middle;spacingTop=-1;spacingLeft=3;spacingRight=3;rotatable=0;labelPosition=right;points=[];portConstraint=eastwest;strokeColor=inherit;" vertex="1" parent="qbjHn3xxU6l6A_D1i-yu-28">
          <mxGeometry y="150.3846153846154" width="167" height="13" as="geometry" />
        </mxCell>
        <mxCell id="qbjHn3xxU6l6A_D1i-yu-35" value="Ticket" style="swimlane;fontStyle=1;align=center;verticalAlign=top;childLayout=stackLayout;horizontal=1;startSize=24.63157894736842;horizontalStack=0;resizeParent=1;resizeParentMax=0;resizeLast=0;collapsible=0;marginBottom=0;" vertex="1" parent="1">
          <mxGeometry x="297" y="1027" width="205" height="236.63157894736844" as="geometry" />
        </mxCell>
        <mxCell id="qbjHn3xxU6l6A_D1i-yu-36" value="+Int ticketId" style="text;strokeColor=none;fillColor=none;align=left;verticalAlign=top;spacingLeft=4;spacingRight=4;overflow=hidden;rotatable=0;points=[[0,0.5],[1,0.5]];portConstraint=eastwest;" vertex="1" parent="qbjHn3xxU6l6A_D1i-yu-35">
          <mxGeometry y="24.63157894736842" width="205" height="25" as="geometry" />
        </mxCell>
        <mxCell id="qbjHn3xxU6l6A_D1i-yu-37" value="+String serialNumber" style="text;strokeColor=none;fillColor=none;align=left;verticalAlign=top;spacingLeft=4;spacingRight=4;overflow=hidden;rotatable=0;points=[[0,0.5],[1,0.5]];portConstraint=eastwest;" vertex="1" parent="qbjHn3xxU6l6A_D1i-yu-35">
          <mxGeometry y="49.631578947368425" width="205" height="25" as="geometry" />
        </mxCell>
        <mxCell id="qbjHn3xxU6l6A_D1i-yu-38" value="+String section" style="text;strokeColor=none;fillColor=none;align=left;verticalAlign=top;spacingLeft=4;spacingRight=4;overflow=hidden;rotatable=0;points=[[0,0.5],[1,0.5]];portConstraint=eastwest;" vertex="1" parent="qbjHn3xxU6l6A_D1i-yu-35">
          <mxGeometry y="74.63157894736842" width="205" height="25" as="geometry" />
        </mxCell>
        <mxCell id="qbjHn3xxU6l6A_D1i-yu-39" value="+String rowNumber" style="text;strokeColor=none;fillColor=none;align=left;verticalAlign=top;spacingLeft=4;spacingRight=4;overflow=hidden;rotatable=0;points=[[0,0.5],[1,0.5]];portConstraint=eastwest;" vertex="1" parent="qbjHn3xxU6l6A_D1i-yu-35">
          <mxGeometry y="99.63157894736842" width="205" height="25" as="geometry" />
        </mxCell>
        <mxCell id="qbjHn3xxU6l6A_D1i-yu-40" value="+String seatNumber" style="text;strokeColor=none;fillColor=none;align=left;verticalAlign=top;spacingLeft=4;spacingRight=4;overflow=hidden;rotatable=0;points=[[0,0.5],[1,0.5]];portConstraint=eastwest;" vertex="1" parent="qbjHn3xxU6l6A_D1i-yu-35">
          <mxGeometry y="124.63157894736842" width="205" height="25" as="geometry" />
        </mxCell>
        <mxCell id="qbjHn3xxU6l6A_D1i-yu-41" value="+String status" style="text;strokeColor=none;fillColor=none;align=left;verticalAlign=top;spacingLeft=4;spacingRight=4;overflow=hidden;rotatable=0;points=[[0,0.5],[1,0.5]];portConstraint=eastwest;" vertex="1" parent="qbjHn3xxU6l6A_D1i-yu-35">
          <mxGeometry y="149.63157894736844" width="205" height="25" as="geometry" />
        </mxCell>
        <mxCell id="qbjHn3xxU6l6A_D1i-yu-42" value="+Timestamp purchaseDate" style="text;strokeColor=none;fillColor=none;align=left;verticalAlign=top;spacingLeft=4;spacingRight=4;overflow=hidden;rotatable=0;points=[[0,0.5],[1,0.5]];portConstraint=eastwest;" vertex="1" parent="qbjHn3xxU6l6A_D1i-yu-35">
          <mxGeometry y="174.63157894736844" width="205" height="25" as="geometry" />
        </mxCell>
        <mxCell id="qbjHn3xxU6l6A_D1i-yu-43" value="+TicketCategory category" style="text;strokeColor=none;fillColor=none;align=left;verticalAlign=top;spacingLeft=4;spacingRight=4;overflow=hidden;rotatable=0;points=[[0,0.5],[1,0.5]];portConstraint=eastwest;" vertex="1" parent="qbjHn3xxU6l6A_D1i-yu-35">
          <mxGeometry y="199.63157894736844" width="205" height="25" as="geometry" />
        </mxCell>
        <mxCell id="qbjHn3xxU6l6A_D1i-yu-44" style="line;strokeWidth=1;fillColor=none;align=left;verticalAlign=middle;spacingTop=-1;spacingLeft=3;spacingRight=3;rotatable=0;labelPosition=right;points=[];portConstraint=eastwest;strokeColor=inherit;" vertex="1" parent="qbjHn3xxU6l6A_D1i-yu-35">
          <mxGeometry y="224.63157894736844" width="205" height="12" as="geometry" />
        </mxCell>
        <mxCell id="qbjHn3xxU6l6A_D1i-yu-45" value="User" style="swimlane;fontStyle=1;align=center;verticalAlign=top;childLayout=stackLayout;horizontal=1;startSize=24.823529411764707;horizontalStack=0;resizeParent=1;resizeParentMax=0;resizeLast=0;collapsible=0;marginBottom=0;" vertex="1" parent="1">
          <mxGeometry x="515" y="197" width="234" height="211.8235294117647" as="geometry" />
        </mxCell>
        <mxCell id="qbjHn3xxU6l6A_D1i-yu-46" value="+Int userId" style="text;strokeColor=none;fillColor=none;align=left;verticalAlign=top;spacingLeft=4;spacingRight=4;overflow=hidden;rotatable=0;points=[[0,0.5],[1,0.5]];portConstraint=eastwest;" vertex="1" parent="qbjHn3xxU6l6A_D1i-yu-45">
          <mxGeometry y="24.823529411764707" width="234" height="25" as="geometry" />
        </mxCell>
        <mxCell id="qbjHn3xxU6l6A_D1i-yu-47" value="+String userName" style="text;strokeColor=none;fillColor=none;align=left;verticalAlign=top;spacingLeft=4;spacingRight=4;overflow=hidden;rotatable=0;points=[[0,0.5],[1,0.5]];portConstraint=eastwest;" vertex="1" parent="qbjHn3xxU6l6A_D1i-yu-45">
          <mxGeometry y="49.82352941176471" width="234" height="25" as="geometry" />
        </mxCell>
        <mxCell id="qbjHn3xxU6l6A_D1i-yu-48" value="+String email" style="text;strokeColor=none;fillColor=none;align=left;verticalAlign=top;spacingLeft=4;spacingRight=4;overflow=hidden;rotatable=0;points=[[0,0.5],[1,0.5]];portConstraint=eastwest;" vertex="1" parent="qbjHn3xxU6l6A_D1i-yu-45">
          <mxGeometry y="74.82352941176471" width="234" height="25" as="geometry" />
        </mxCell>
        <mxCell id="qbjHn3xxU6l6A_D1i-yu-49" value="+String passwordHash" style="text;strokeColor=none;fillColor=none;align=left;verticalAlign=top;spacingLeft=4;spacingRight=4;overflow=hidden;rotatable=0;points=[[0,0.5],[1,0.5]];portConstraint=eastwest;" vertex="1" parent="qbjHn3xxU6l6A_D1i-yu-45">
          <mxGeometry y="99.82352941176471" width="234" height="25" as="geometry" />
        </mxCell>
        <mxCell id="qbjHn3xxU6l6A_D1i-yu-50" value="+String confirmationCode" style="text;strokeColor=none;fillColor=none;align=left;verticalAlign=top;spacingLeft=4;spacingRight=4;overflow=hidden;rotatable=0;points=[[0,0.5],[1,0.5]];portConstraint=eastwest;" vertex="1" parent="qbjHn3xxU6l6A_D1i-yu-45">
          <mxGeometry y="124.82352941176471" width="234" height="25" as="geometry" />
        </mxCell>
        <mxCell id="qbjHn3xxU6l6A_D1i-yu-51" value="+Timestamp confirmationTime" style="text;strokeColor=none;fillColor=none;align=left;verticalAlign=top;spacingLeft=4;spacingRight=4;overflow=hidden;rotatable=0;points=[[0,0.5],[1,0.5]];portConstraint=eastwest;" vertex="1" parent="qbjHn3xxU6l6A_D1i-yu-45">
          <mxGeometry y="149.8235294117647" width="234" height="25" as="geometry" />
        </mxCell>
        <mxCell id="qbjHn3xxU6l6A_D1i-yu-52" value="+List&lt;Booking&gt; bookings" style="text;strokeColor=none;fillColor=none;align=left;verticalAlign=top;spacingLeft=4;spacingRight=4;overflow=hidden;rotatable=0;points=[[0,0.5],[1,0.5]];portConstraint=eastwest;" vertex="1" parent="qbjHn3xxU6l6A_D1i-yu-45">
          <mxGeometry y="174.8235294117647" width="234" height="25" as="geometry" />
        </mxCell>
        <mxCell id="qbjHn3xxU6l6A_D1i-yu-53" style="line;strokeWidth=1;fillColor=none;align=left;verticalAlign=middle;spacingTop=-1;spacingLeft=3;spacingRight=3;rotatable=0;labelPosition=right;points=[];portConstraint=eastwest;strokeColor=inherit;" vertex="1" parent="qbjHn3xxU6l6A_D1i-yu-45">
          <mxGeometry y="199.8235294117647" width="234" height="12" as="geometry" />
        </mxCell>
        <mxCell id="qbjHn3xxU6l6A_D1i-yu-54" value="Booking" style="swimlane;fontStyle=1;align=center;verticalAlign=top;childLayout=stackLayout;horizontal=1;startSize=24.347826086956523;horizontalStack=0;resizeParent=1;resizeParentMax=0;resizeLast=0;collapsible=0;marginBottom=0;" vertex="1" parent="1">
          <mxGeometry x="494" y="466" width="277" height="276.3478260869565" as="geometry" />
        </mxCell>
        <mxCell id="qbjHn3xxU6l6A_D1i-yu-55" value="+Int bookingId" style="text;strokeColor=none;fillColor=none;align=left;verticalAlign=top;spacingLeft=4;spacingRight=4;overflow=hidden;rotatable=0;points=[[0,0.5],[1,0.5]];portConstraint=eastwest;" vertex="1" parent="qbjHn3xxU6l6A_D1i-yu-54">
          <mxGeometry y="24.347826086956523" width="277" height="24" as="geometry" />
        </mxCell>
        <mxCell id="qbjHn3xxU6l6A_D1i-yu-56" value="+String deliveryAddressEmail" style="text;strokeColor=none;fillColor=none;align=left;verticalAlign=top;spacingLeft=4;spacingRight=4;overflow=hidden;rotatable=0;points=[[0,0.5],[1,0.5]];portConstraint=eastwest;" vertex="1" parent="qbjHn3xxU6l6A_D1i-yu-54">
          <mxGeometry y="48.34782608695652" width="277" height="24" as="geometry" />
        </mxCell>
        <mxCell id="qbjHn3xxU6l6A_D1i-yu-57" value="+Timestamp deliveryTime" style="text;strokeColor=none;fillColor=none;align=left;verticalAlign=top;spacingLeft=4;spacingRight=4;overflow=hidden;rotatable=0;points=[[0,0.5],[1,0.5]];portConstraint=eastwest;" vertex="1" parent="qbjHn3xxU6l6A_D1i-yu-54">
          <mxGeometry y="72.34782608695653" width="277" height="24" as="geometry" />
        </mxCell>
        <mxCell id="qbjHn3xxU6l6A_D1i-yu-58" value="+Timestamp timePaid" style="text;strokeColor=none;fillColor=none;align=left;verticalAlign=top;spacingLeft=4;spacingRight=4;overflow=hidden;rotatable=0;points=[[0,0.5],[1,0.5]];portConstraint=eastwest;" vertex="1" parent="qbjHn3xxU6l6A_D1i-yu-54">
          <mxGeometry y="96.34782608695653" width="277" height="24" as="geometry" />
        </mxCell>
        <mxCell id="qbjHn3xxU6l6A_D1i-yu-59" value="+BigDecimal totalPrice" style="text;strokeColor=none;fillColor=none;align=left;verticalAlign=top;spacingLeft=4;spacingRight=4;overflow=hidden;rotatable=0;points=[[0,0.5],[1,0.5]];portConstraint=eastwest;" vertex="1" parent="qbjHn3xxU6l6A_D1i-yu-54">
          <mxGeometry y="120.34782608695653" width="277" height="24" as="geometry" />
        </mxCell>
        <mxCell id="qbjHn3xxU6l6A_D1i-yu-60" value="+BigDecimal discount" style="text;strokeColor=none;fillColor=none;align=left;verticalAlign=top;spacingLeft=4;spacingRight=4;overflow=hidden;rotatable=0;points=[[0,0.5],[1,0.5]];portConstraint=eastwest;" vertex="1" parent="qbjHn3xxU6l6A_D1i-yu-54">
          <mxGeometry y="144.34782608695653" width="277" height="24" as="geometry" />
        </mxCell>
        <mxCell id="qbjHn3xxU6l6A_D1i-yu-61" value="+BigDecimal finalPrice" style="text;strokeColor=none;fillColor=none;align=left;verticalAlign=top;spacingLeft=4;spacingRight=4;overflow=hidden;rotatable=0;points=[[0,0.5],[1,0.5]];portConstraint=eastwest;" vertex="1" parent="qbjHn3xxU6l6A_D1i-yu-54">
          <mxGeometry y="168.34782608695653" width="277" height="24" as="geometry" />
        </mxCell>
        <mxCell id="qbjHn3xxU6l6A_D1i-yu-62" value="+String bookingStatus" style="text;strokeColor=none;fillColor=none;align=left;verticalAlign=top;spacingLeft=4;spacingRight=4;overflow=hidden;rotatable=0;points=[[0,0.5],[1,0.5]];portConstraint=eastwest;" vertex="1" parent="qbjHn3xxU6l6A_D1i-yu-54">
          <mxGeometry y="192.34782608695653" width="277" height="24" as="geometry" />
        </mxCell>
        <mxCell id="qbjHn3xxU6l6A_D1i-yu-63" value="+User user" style="text;strokeColor=none;fillColor=none;align=left;verticalAlign=top;spacingLeft=4;spacingRight=4;overflow=hidden;rotatable=0;points=[[0,0.5],[1,0.5]];portConstraint=eastwest;" vertex="1" parent="qbjHn3xxU6l6A_D1i-yu-54">
          <mxGeometry y="216.34782608695653" width="277" height="24" as="geometry" />
        </mxCell>
        <mxCell id="qbjHn3xxU6l6A_D1i-yu-64" value="+List&lt;BookingTicket&gt; bookingTickets" style="text;strokeColor=none;fillColor=none;align=left;verticalAlign=top;spacingLeft=4;spacingRight=4;overflow=hidden;rotatable=0;points=[[0,0.5],[1,0.5]];portConstraint=eastwest;" vertex="1" parent="qbjHn3xxU6l6A_D1i-yu-54">
          <mxGeometry y="240.34782608695653" width="277" height="24" as="geometry" />
        </mxCell>
        <mxCell id="qbjHn3xxU6l6A_D1i-yu-65" style="line;strokeWidth=1;fillColor=none;align=left;verticalAlign=middle;spacingTop=-1;spacingLeft=3;spacingRight=3;rotatable=0;labelPosition=right;points=[];portConstraint=eastwest;strokeColor=inherit;" vertex="1" parent="qbjHn3xxU6l6A_D1i-yu-54">
          <mxGeometry y="264.3478260869565" width="277" height="12" as="geometry" />
        </mxCell>
        <mxCell id="qbjHn3xxU6l6A_D1i-yu-66" value="BookingTicket" style="swimlane;fontStyle=1;align=center;verticalAlign=top;childLayout=stackLayout;horizontal=1;startSize=26.444444444444443;horizontalStack=0;resizeParent=1;resizeParentMax=0;resizeLast=0;collapsible=0;marginBottom=0;" vertex="1" parent="1">
          <mxGeometry x="552" y="827" width="161" height="117.44444444444444" as="geometry" />
        </mxCell>
        <mxCell id="qbjHn3xxU6l6A_D1i-yu-67" value="+Int bookingTicketId" style="text;strokeColor=none;fillColor=none;align=left;verticalAlign=top;spacingLeft=4;spacingRight=4;overflow=hidden;rotatable=0;points=[[0,0.5],[1,0.5]];portConstraint=eastwest;" vertex="1" parent="qbjHn3xxU6l6A_D1i-yu-66">
          <mxGeometry y="26.444444444444443" width="161" height="26" as="geometry" />
        </mxCell>
        <mxCell id="qbjHn3xxU6l6A_D1i-yu-68" value="+Booking booking" style="text;strokeColor=none;fillColor=none;align=left;verticalAlign=top;spacingLeft=4;spacingRight=4;overflow=hidden;rotatable=0;points=[[0,0.5],[1,0.5]];portConstraint=eastwest;" vertex="1" parent="qbjHn3xxU6l6A_D1i-yu-66">
          <mxGeometry y="52.44444444444444" width="161" height="26" as="geometry" />
        </mxCell>
        <mxCell id="qbjHn3xxU6l6A_D1i-yu-69" value="+Ticket ticket" style="text;strokeColor=none;fillColor=none;align=left;verticalAlign=top;spacingLeft=4;spacingRight=4;overflow=hidden;rotatable=0;points=[[0,0.5],[1,0.5]];portConstraint=eastwest;" vertex="1" parent="qbjHn3xxU6l6A_D1i-yu-66">
          <mxGeometry y="78.44444444444444" width="161" height="26" as="geometry" />
        </mxCell>
        <mxCell id="qbjHn3xxU6l6A_D1i-yu-70" style="line;strokeWidth=1;fillColor=none;align=left;verticalAlign=middle;spacingTop=-1;spacingLeft=3;spacingRight=3;rotatable=0;labelPosition=right;points=[];portConstraint=eastwest;strokeColor=inherit;" vertex="1" parent="qbjHn3xxU6l6A_D1i-yu-66">
          <mxGeometry y="104.44444444444444" width="161" height="13" as="geometry" />
        </mxCell>
        <mxCell id="qbjHn3xxU6l6A_D1i-yu-71" value="" style="curved=1;startArrow=none;endArrow=diamondThin;endSize=14;endFill=0;exitX=0.5;exitY=1;entryX=0.5;entryY=0;rounded=0;" edge="1" parent="1" source="qbjHn3xxU6l6A_D1i-yu-1" target="qbjHn3xxU6l6A_D1i-yu-6">
          <mxGeometry relative="1" as="geometry">
            <Array as="points" />
          </mxGeometry>
        </mxCell>
        <mxCell id="qbjHn3xxU6l6A_D1i-yu-72" value="1" style="edgeLabel;resizable=0;labelBackgroundColor=none;fontSize=12;align=right;verticalAlign=top;" vertex="1" parent="qbjHn3xxU6l6A_D1i-yu-71">
          <mxGeometry x="-1" relative="1" as="geometry" />
        </mxCell>
        <mxCell id="qbjHn3xxU6l6A_D1i-yu-73" value="*" style="edgeLabel;resizable=0;labelBackgroundColor=none;fontSize=12;align=left;verticalAlign=bottom;" vertex="1" parent="qbjHn3xxU6l6A_D1i-yu-71">
          <mxGeometry x="1" relative="1" as="geometry" />
        </mxCell>
        <mxCell id="qbjHn3xxU6l6A_D1i-yu-74" value="" style="curved=1;startArrow=none;endArrow=diamondThin;endSize=14;endFill=0;exitX=0.5;exitY=1;entryX=0.25;entryY=0;rounded=0;" edge="1" parent="1" source="qbjHn3xxU6l6A_D1i-yu-6" target="qbjHn3xxU6l6A_D1i-yu-20">
          <mxGeometry relative="1" as="geometry">
            <Array as="points">
              <mxPoint x="131" y="441" />
            </Array>
          </mxGeometry>
        </mxCell>
        <mxCell id="qbjHn3xxU6l6A_D1i-yu-75" value="1" style="edgeLabel;resizable=0;labelBackgroundColor=none;fontSize=12;align=right;verticalAlign=top;" vertex="1" parent="qbjHn3xxU6l6A_D1i-yu-74">
          <mxGeometry x="-1" relative="1" as="geometry" />
        </mxCell>
        <mxCell id="qbjHn3xxU6l6A_D1i-yu-76" value="*" style="edgeLabel;resizable=0;labelBackgroundColor=none;fontSize=12;align=left;verticalAlign=bottom;" vertex="1" parent="qbjHn3xxU6l6A_D1i-yu-74">
          <mxGeometry x="1" relative="1" as="geometry" />
        </mxCell>
        <mxCell id="qbjHn3xxU6l6A_D1i-yu-77" value="" style="curved=1;startArrow=none;endArrow=diamondThin;endSize=14;endFill=0;exitX=0.5;exitY=1;entryX=0.75;entryY=0;rounded=0;" edge="1" parent="1" source="qbjHn3xxU6l6A_D1i-yu-12" target="qbjHn3xxU6l6A_D1i-yu-20">
          <mxGeometry relative="1" as="geometry">
            <Array as="points">
              <mxPoint x="352" y="441" />
            </Array>
          </mxGeometry>
        </mxCell>
        <mxCell id="qbjHn3xxU6l6A_D1i-yu-78" value="1" style="edgeLabel;resizable=0;labelBackgroundColor=none;fontSize=12;align=right;verticalAlign=top;" vertex="1" parent="qbjHn3xxU6l6A_D1i-yu-77">
          <mxGeometry x="-1" relative="1" as="geometry" />
        </mxCell>
        <mxCell id="qbjHn3xxU6l6A_D1i-yu-79" value="*" style="edgeLabel;resizable=0;labelBackgroundColor=none;fontSize=12;align=left;verticalAlign=bottom;" vertex="1" parent="qbjHn3xxU6l6A_D1i-yu-77">
          <mxGeometry x="1" relative="1" as="geometry" />
        </mxCell>
        <mxCell id="qbjHn3xxU6l6A_D1i-yu-80" value="" style="curved=1;startArrow=none;endArrow=diamondThin;endSize=14;endFill=0;exitX=0.5;exitY=1;entryX=0.5;entryY=0;rounded=0;" edge="1" parent="1" source="qbjHn3xxU6l6A_D1i-yu-20" target="qbjHn3xxU6l6A_D1i-yu-28">
          <mxGeometry relative="1" as="geometry">
            <Array as="points" />
          </mxGeometry>
        </mxCell>
        <mxCell id="qbjHn3xxU6l6A_D1i-yu-81" value="1" style="edgeLabel;resizable=0;labelBackgroundColor=none;fontSize=12;align=right;verticalAlign=top;" vertex="1" parent="qbjHn3xxU6l6A_D1i-yu-80">
          <mxGeometry x="-1" relative="1" as="geometry" />
        </mxCell>
        <mxCell id="qbjHn3xxU6l6A_D1i-yu-82" value="*" style="edgeLabel;resizable=0;labelBackgroundColor=none;fontSize=12;align=left;verticalAlign=bottom;" vertex="1" parent="qbjHn3xxU6l6A_D1i-yu-80">
          <mxGeometry x="1" relative="1" as="geometry" />
        </mxCell>
        <mxCell id="qbjHn3xxU6l6A_D1i-yu-83" value="" style="curved=1;startArrow=none;endArrow=diamondThin;endSize=14;endFill=0;exitX=0.5;exitY=1;entryX=0;entryY=0.11;rounded=0;" edge="1" parent="1" source="qbjHn3xxU6l6A_D1i-yu-28" target="qbjHn3xxU6l6A_D1i-yu-35">
          <mxGeometry relative="1" as="geometry">
            <Array as="points">
              <mxPoint x="242" y="1002" />
            </Array>
          </mxGeometry>
        </mxCell>
        <mxCell id="qbjHn3xxU6l6A_D1i-yu-84" value="1" style="edgeLabel;resizable=0;labelBackgroundColor=none;fontSize=12;align=right;verticalAlign=top;" vertex="1" parent="qbjHn3xxU6l6A_D1i-yu-83">
          <mxGeometry x="-1" relative="1" as="geometry" />
        </mxCell>
        <mxCell id="qbjHn3xxU6l6A_D1i-yu-85" value="*" style="edgeLabel;resizable=0;labelBackgroundColor=none;fontSize=12;align=left;verticalAlign=bottom;" vertex="1" parent="qbjHn3xxU6l6A_D1i-yu-83">
          <mxGeometry x="1" relative="1" as="geometry" />
        </mxCell>
        <mxCell id="qbjHn3xxU6l6A_D1i-yu-86" value="" style="curved=1;startArrow=none;endArrow=diamondThin;endSize=14;endFill=0;exitX=0.5;exitY=1;entryX=0.5;entryY=0;rounded=0;" edge="1" parent="1" source="qbjHn3xxU6l6A_D1i-yu-45" target="qbjHn3xxU6l6A_D1i-yu-54">
          <mxGeometry relative="1" as="geometry">
            <Array as="points" />
          </mxGeometry>
        </mxCell>
        <mxCell id="qbjHn3xxU6l6A_D1i-yu-87" value="1" style="edgeLabel;resizable=0;labelBackgroundColor=none;fontSize=12;align=right;verticalAlign=top;" vertex="1" parent="qbjHn3xxU6l6A_D1i-yu-86">
          <mxGeometry x="-1" relative="1" as="geometry" />
        </mxCell>
        <mxCell id="qbjHn3xxU6l6A_D1i-yu-88" value="*" style="edgeLabel;resizable=0;labelBackgroundColor=none;fontSize=12;align=left;verticalAlign=bottom;" vertex="1" parent="qbjHn3xxU6l6A_D1i-yu-86">
          <mxGeometry x="1" relative="1" as="geometry" />
        </mxCell>
        <mxCell id="qbjHn3xxU6l6A_D1i-yu-89" value="" style="curved=1;startArrow=none;endArrow=diamondThin;endSize=14;endFill=0;exitX=0.5;exitY=1;entryX=0.5;entryY=0;rounded=0;" edge="1" parent="1" source="qbjHn3xxU6l6A_D1i-yu-54" target="qbjHn3xxU6l6A_D1i-yu-66">
          <mxGeometry relative="1" as="geometry">
            <Array as="points" />
          </mxGeometry>
        </mxCell>
        <mxCell id="qbjHn3xxU6l6A_D1i-yu-90" value="1" style="edgeLabel;resizable=0;labelBackgroundColor=none;fontSize=12;align=right;verticalAlign=top;" vertex="1" parent="qbjHn3xxU6l6A_D1i-yu-89">
          <mxGeometry x="-1" relative="1" as="geometry" />
        </mxCell>
        <mxCell id="qbjHn3xxU6l6A_D1i-yu-91" value="*" style="edgeLabel;resizable=0;labelBackgroundColor=none;fontSize=12;align=left;verticalAlign=bottom;" vertex="1" parent="qbjHn3xxU6l6A_D1i-yu-89">
          <mxGeometry x="1" relative="1" as="geometry" />
        </mxCell>
        <mxCell id="qbjHn3xxU6l6A_D1i-yu-92" value="" style="curved=1;startArrow=none;endArrow=diamondThin;endSize=14;endFill=0;exitX=0.5;exitY=1;entryX=1;entryY=0.24;rounded=0;" edge="1" parent="1" source="qbjHn3xxU6l6A_D1i-yu-66" target="qbjHn3xxU6l6A_D1i-yu-35">
          <mxGeometry relative="1" as="geometry">
            <Array as="points">
              <mxPoint x="633" y="1002" />
            </Array>
          </mxGeometry>
        </mxCell>
        <mxCell id="qbjHn3xxU6l6A_D1i-yu-93" value="*" style="edgeLabel;resizable=0;labelBackgroundColor=none;fontSize=12;align=right;verticalAlign=top;" vertex="1" parent="qbjHn3xxU6l6A_D1i-yu-92">
          <mxGeometry x="-1" relative="1" as="geometry" />
        </mxCell>
        <mxCell id="qbjHn3xxU6l6A_D1i-yu-94" value="1" style="edgeLabel;resizable=0;labelBackgroundColor=none;fontSize=12;align=left;verticalAlign=bottom;" vertex="1" parent="qbjHn3xxU6l6A_D1i-yu-92">
          <mxGeometry x="1" relative="1" as="geometry" />
        </mxCell>
      </root>
    </mxGraphModel>
  </diagram>
</mxfile>
